<svg width="1234" height="235" viewBox="0 0 1234 235" fill="none" xmlns="http://www.w3.org/2000/svg">
<path d="M106.195 232.847C150.933 227.527 176.258 199.687 176.258 164.2C176.258 130.366 154.58 113.29 115.935 105.385L106.195 103.443V135.982C128.823 141.79 139.499 151.234 139.499 168.943C139.499 187.514 126.041 199.911 106.195 204.236V232.847Z" fill="white"/>
<path d="M68.4926 128.468L68.4926 94.987C53.9306 90.0123 43.0435 81.7051 43.0435 65.2265C43.0435 50.639 51.9148 37.2769 68.4926 31.3929V2.16493C32.188 8.961 7.85465 34.7349 7.85465 67.44C7.85465 106.018 36.7598 122.144 68.4926 128.468Z" fill="white"/>
<path d="M106.195 1.93501V31.0762C124.55 37.3343 136.474 53.4194 137.928 74.3966H173.117C170.669 35.2602 143.745 8.44111 106.195 1.93501Z" fill="white"/>
<path d="M68.4926 203.143V232.019C27.1194 225 2.42925 197.355 0 158.508H35.1888C36.4023 180.736 47.5518 196.926 68.4926 203.143Z" fill="white"/>
<path d="M910.511 230.604H983.483V200.248H910.511V230.604Z" fill="white"/>
<path d="M910.511 128.785H971.859V98.4286H910.511V128.785Z" fill="white"/>
<path d="M910.511 33.9217H981.284V3.56559H910.511V33.9217Z" fill="white"/>
<path d="M872.809 3.56559H840.529V230.604H872.809V3.56559Z" fill="white"/>
<path d="M773.192 141.117C765.81 190.1 730.587 225.193 684.297 233.474V201.106C711.352 193.294 731.387 170.569 736.433 141.117H773.192Z" fill="white"/>
<path d="M587.194 116.769C587.194 73.0035 611.001 39.7807 646.595 31.9086V0C591.842 8.00551 551.377 55.9498 551.377 116.769C551.377 177.876 591.842 226.108 646.595 234.163V202.26C611.001 194.379 587.194 161.084 587.194 116.769Z" fill="white"/>
<path d="M736.433 92.7368C731.387 63.2846 711.352 40.7639 684.297 33.0317V0.694945C730.587 8.97148 765.81 44.0288 773.192 92.7368H736.433Z" fill="white"/>
<path d="M384.358 230.604H319.841V199.3H384.358V230.604Z" fill="white"/>
<path d="M247.687 230.604H282.139V148.39H282.247V3.56559H247.687V230.604Z" fill="white"/>
<path d="M484.259 230.604H449.698V3.56559H484.259V230.604Z" fill="white"/>
<path d="M1080.9 5.50648H1045.79V234.162H1080.9V203.908H1080.82V35.7603H1080.9V5.50648Z" fill="white"/>
<path d="M1118.36 203.894C1169.71 203.129 1197.38 170.797 1197.38 118.879C1197.38 67.9009 1170.02 36.5123 1118.36 35.7736V5.50671C1191.12 5.6262 1233.05 52.0879 1233.05 118.879C1233.05 184.713 1189.53 234.032 1118.36 234.161V203.894Z" fill="white"/>
</svg>
